<svg 
 xmlns="http://www.w3.org/2000/svg"
 xmlns:xlink="http://www.w3.org/1999/xlink"
 width="256px" height="256px">
<path fill-rule="evenodd"  fill="rgb(19, 196, 178)"
 d="M156.284,128.000 L249.622,221.338 C257.433,229.149 257.433,241.812 249.622,249.622 C241.812,257.433 229.149,257.433 221.338,249.622 L128.000,156.284 L34.662,249.622 C26.851,257.433 14.188,257.433 6.378,249.622 C-1.433,241.812 -1.433,229.149 6.378,221.338 L99.716,128.000 L6.378,34.662 C-1.433,26.851 -1.433,14.188 6.378,6.378 C14.188,-1.433 26.851,-1.433 34.662,6.378 L128.000,99.716 L221.338,6.378 C229.149,-1.433 241.812,-1.433 249.622,6.378 C257.433,14.188 257.433,26.851 249.622,34.662 L156.284,128.000 Z"/>
</svg>