<svg 
 xmlns="http://www.w3.org/2000/svg"
 xmlns:xlink="http://www.w3.org/1999/xlink"
 width="171px" height="170px">
<path fill-rule="evenodd"  fill="rgb(255, 255, 255)"
 d="M170.158,8.292 L120.101,166.064 C119.800,166.939 119.267,167.661 118.610,168.221 C118.149,168.739 117.581,169.175 116.905,169.473 C114.379,170.588 111.427,169.443 110.313,166.917 L78.383,94.121 C78.376,94.119 78.368,94.117 78.361,94.115 L3.921,65.067 C1.346,64.069 0.068,61.172 1.067,58.597 C1.452,57.604 2.123,56.811 2.945,56.260 C3.529,55.278 4.431,54.479 5.595,54.078 L160.538,1.194 C161.186,0.970 161.849,0.889 162.493,0.932 C164.398,-0.137 166.846,0.118 168.466,1.738 C169.203,2.475 169.660,3.385 169.841,4.337 C170.463,5.516 170.626,6.933 170.158,8.292 ZM18.798,60.138 L79.362,83.771 L146.624,16.509 L18.798,60.138 ZM87.428,89.847 L114.333,151.187 L155.341,21.934 L87.428,89.847 ZM27.752,95.783 C29.704,93.831 32.870,93.831 34.823,95.783 C36.775,97.736 36.775,100.902 34.823,102.854 L9.367,128.310 C7.414,130.263 4.248,130.263 2.296,128.310 C0.343,126.357 0.343,123.192 2.296,121.239 L27.752,95.783 ZM60.279,102.854 C62.231,100.902 65.397,100.902 67.350,102.854 C69.302,104.807 69.302,107.973 67.350,109.925 L15.731,161.544 C13.778,163.497 10.612,163.497 8.660,161.544 C6.707,159.591 6.707,156.426 8.660,154.473 L60.279,102.854 ZM67.350,135.381 C69.302,133.429 72.468,133.429 74.421,135.381 C76.373,137.334 76.373,140.500 74.421,142.452 L48.965,167.908 C47.012,169.861 43.846,169.861 41.894,167.908 C39.941,165.955 39.941,162.790 41.894,160.837 L67.350,135.381 Z"/>
</svg>