<svg width="663" height="844" viewBox="0 0 663 844" fill="none" xmlns="http://www.w3.org/2000/svg">
<path fill-rule="evenodd" clip-rule="evenodd" d="M131.211 613.248C131.211 613.248 87.3607 588.59 84.0914 583.245C80.8222 577.9 64.7424 556.418 66.7857 552.849C68.829 549.28 127.107 525.852 143.062 551.295C159.018 576.739 162.643 591.254 162.643 591.254C162.643 591.254 139.242 614.546 131.211 613.248Z" fill="url(#paint0_radial_63_241)"/>
<path fill-rule="evenodd" clip-rule="evenodd" d="M156.317 588.556C156.317 588.556 139.971 612.565 131.958 611.301C131.958 611.301 84.0737 586.216 73.2354 555.274C73.2354 555.274 85.3529 551.551 93.5971 548.7C95.214 548.119 96.3334 547.539 96.6532 547.009C98.7143 543.44 130.643 537.002 146.545 562.395C151.378 570.182 154.221 575.612 155.731 579.454C159.284 588.214 156.317 588.556 156.317 588.556Z" fill="#22104B"/>
<path fill-rule="evenodd" clip-rule="evenodd" d="M107.58 589.666C107.58 589.666 84.6602 569.43 85.7973 567.45C86.9344 565.469 118.703 565.093 127.587 579.266C136.489 593.457 137.946 597.435 137.946 597.435L107.58 589.666Z" fill="url(#paint1_linear_63_241)"/>
<path d="M9.80464 550.254C12.6475 553.259 17.0005 557.033 21.7268 560.739H21.7623C30.9482 567.979 41.52 574.878 44.7715 575.51C49.7287 576.466 58.0972 567.928 63.9606 569.242C66.9456 569.926 72.9156 573.102 79.2764 576.09C85.3174 578.891 106.887 562.378 111.347 562.48C120.515 562.668 122.825 576.346 122.825 576.346C145.728 580.018 152.088 576.449 152.088 576.449C152.088 576.449 119.804 599.416 112.129 602.439C104.453 605.461 87.8937 628.087 72.6312 657.885C57.351 687.684 47.4366 710.498 47.4366 710.498C44.9314 710.19 43.3856 706.365 43.3856 706.365L29.5978 723.561L23.8056 721.631C23.8056 721.631 19.1149 723.8 14.7974 720.538C10.4798 717.277 12.4698 702.011 12.4698 702.011C12.4698 702.011 11.688 688.555 15.3659 677.148C17.5158 670.539 24.2498 659.969 30.2197 650.03C34.0931 643.644 37.6289 637.496 39.4412 632.818C39.6721 632.22 39.8498 631.656 40.0453 631.144C43.7409 619.737 50.2262 599.058 49.6576 595.045C49.089 591.032 37.6289 581.879 34.7149 581.247C31.7655 580.598 27.3946 583.86 22.0466 583.518C21.4069 583.484 20.5363 583.194 19.5591 582.75C12.7363 579.488 -0.500649 566.869 0.0146147 559.629C0.654252 551.381 9.80464 550.254 9.80464 550.254Z" fill="url(#paint2_linear_63_241)"/>
<path fill-rule="evenodd" clip-rule="evenodd" d="M137.963 597.435C137.963 597.435 144.022 582.767 152.87 577.354C152.87 577.354 133.77 552.866 99.5495 552.576L85.8328 567.449C85.7973 567.432 112.858 571.616 137.963 597.435Z" fill="url(#paint3_linear_63_241)"/>
<path opacity="0.5" fill-rule="evenodd" clip-rule="evenodd" d="M156.317 588.556C156.317 588.556 139.971 612.565 131.958 611.301C131.958 611.301 84.0737 586.216 73.2354 555.274C73.2354 555.274 85.3529 551.551 93.5971 548.7C129.506 551.278 151.289 574.28 155.731 579.454C159.284 588.214 156.317 588.556 156.317 588.556Z" fill="#BB61C0"/>
<path opacity="0.5" d="M21.7623 560.739C30.9482 567.979 41.52 574.878 44.7715 575.51C49.7287 576.466 58.0973 567.928 63.9606 569.242C66.9456 569.926 72.9156 573.102 79.2764 576.09C81.2486 584.833 77.7306 599.228 77.7306 599.228C77.7306 599.228 64.0494 612.138 61.0822 622.725C58.115 633.313 59.6431 653.275 59.6431 653.275L58.7014 660.464C58.7014 660.464 56.8713 661.454 54.4726 663.538C51.1323 666.492 46.6193 671.683 44.505 679.419C40.8804 692.67 43.3856 706.365 43.3856 706.365L29.5978 723.561L23.8056 721.631C23.8056 721.631 19.1149 723.8 14.7974 720.538C10.4798 717.277 12.4698 702.011 12.4698 702.011C12.4698 702.011 11.688 688.554 15.3659 677.148C17.5158 670.539 24.2498 659.969 30.2197 650.03C34.0931 643.644 37.6289 637.496 39.4412 632.818C39.6722 632.22 39.8498 631.656 40.0453 631.144C43.741 619.737 50.2262 599.058 49.6576 595.045C49.089 591.032 37.6289 581.879 34.715 581.247C31.7655 580.598 27.3947 583.86 22.0466 583.518C21.4069 583.484 20.5363 583.194 19.5591 582.75C23.699 575.219 21.709 560.756 21.709 560.756L21.7623 560.739Z" fill="#BB61C0"/>
<path d="M23.8234 721.614C23.8234 721.614 22.864 693.934 37.5934 679.794C37.5934 679.794 49.6399 663.299 53.1401 652.78C53.1401 652.78 42.9593 670.402 37.3269 676.721C31.7123 683.056 19.7191 701.959 23.8234 721.614Z" fill="#CC5268"/>
<path d="M12.4875 702.011C12.4875 702.011 19.2215 675.764 35.0526 662.325C35.0526 662.325 41.2358 651.209 42.7993 645.317C42.7993 645.317 36.9182 653.138 34.1464 659.474C34.1464 659.474 17.1782 675.799 12.4875 702.011Z" fill="#CC5268"/>
<path fill-rule="evenodd" clip-rule="evenodd" d="M272.376 494.039C269.622 505.668 162.66 591.288 162.66 591.288C158.041 572.299 92.3179 550.868 66.8035 552.866L74.7456 550.612L117.086 534.595L173.641 489.889C173.641 489.889 209.087 444.022 211.966 438.37C217.865 442.571 265.677 298.532 265.677 298.532L336.357 240.387C336.375 240.37 273.833 488.181 272.376 494.039Z" fill="url(#paint4_radial_63_241)"/>
<path fill-rule="evenodd" clip-rule="evenodd" d="M174.387 542.228L132.508 549.827L132.189 549.878L115.86 552.883L97.2396 550.373L74.7634 550.612L117.104 534.595L174.387 542.228Z" fill="url(#paint5_linear_63_241)"/>
<path fill-rule="evenodd" clip-rule="evenodd" d="M248.443 725.986C248.443 725.986 241.975 781.62 236.965 843.983H348.475C356.257 795.589 364.359 746.665 364.359 746.665L386.605 761.419C386.605 761.419 388.63 768.694 392.113 780.818C392.113 780.818 392.113 780.818 392.113 780.852C392.148 780.886 392.148 780.886 392.148 780.937C392.148 780.937 392.148 780.971 392.184 781.057C396.483 796.152 402.969 818.659 410.467 844H540.011C537.506 821.528 535.48 802.163 534.77 792.43C532.46 759.438 534.858 698.237 534.858 698.237H530.434C530.434 698.237 516.7 685.071 509.806 673.63C503.729 663.538 486.957 631.878 483.101 624.689C482.621 623.75 482.337 623.204 482.337 623.204L484.647 620.898L509.806 595.899L516.611 593.952L509.806 584.099L472.209 590.571L394.653 603.924L268.36 623.204L264.025 624.57C264.025 624.57 248.354 666.27 244.338 696.563V696.683C243.699 701.669 243.326 706.382 243.45 710.549L248.443 725.986Z" fill="url(#paint6_linear_63_241)"/>
<path opacity="0.5" d="M531.696 702.386L504.493 761.419L509.806 838.638L518.103 766.337L537.044 816.61L534.876 698.22L531.696 702.386Z" fill="#935B9D"/>
<path opacity="0.5" d="M491.789 603.276L484.664 620.881L483.119 624.655L480.045 632.288L428.216 704.606L439.517 667.346L359.366 657.527L319.371 674.347L339.022 684.388L408.476 716.782C408.476 716.782 335.949 703.496 319.371 694.275C302.794 685.054 265.642 649.262 265.642 649.262L244.321 696.649V696.529C248.336 666.236 264.007 624.535 264.007 624.535L268.343 623.169L394.635 603.89L472.191 590.537L491.789 603.276Z" fill="#935B9D"/>
<path opacity="0.5" d="M286.679 843.983H348.493C356.275 795.589 364.377 746.665 364.377 746.665L386.622 761.419L389.625 751.105C389.625 751.105 429.46 731.399 439.534 728.479C449.591 725.525 504.475 728.479 504.475 728.479L447.796 716.799C447.796 716.799 378.182 740.637 376.121 739.117C374.131 737.598 301.373 699.432 299.098 698.271L336.375 733.397C336.375 733.38 309.102 784.933 286.679 843.983Z" fill="#935B9D"/>
<path opacity="0.5" d="M418.249 843.983C404.248 810.343 392.983 782.935 392.166 780.92C396.466 796.016 402.986 818.573 410.502 843.983H418.249Z" fill="#935B9D"/>
<path opacity="0.5" d="M288.562 843.983H348.493C356.275 795.589 364.377 746.665 364.377 746.665L386.622 761.419L389.625 751.105L376.139 739.117L299.116 698.271L336.393 733.397C336.375 733.38 310.114 789.305 288.562 843.983Z" fill="#935B9D"/>
<path opacity="0.5" d="M418.391 843.983C404.319 810.36 393.09 783.191 392.201 781.04C396.501 796.135 402.986 818.642 410.484 843.983H418.391Z" fill="#935B9D"/>
<path opacity="0.2" d="M341.741 640.297L351.567 690.245L346.645 703.411L358.087 729.35C358.087 729.35 335.451 714.954 330.068 710.036C324.702 705.118 319.389 694.309 319.389 694.309L331.347 680.477L314.965 630.102L341.741 640.297Z" fill="#807CAF"/>
<path opacity="0.5" d="M458.013 633.04C458.013 633.04 489.87 691.321 494.863 702.386C499.856 713.452 534.005 729.333 534.005 729.333L534.876 698.22L531.695 702.386C531.695 702.386 516.913 695.18 512.009 686.881C507.105 678.599 480.045 632.288 480.045 632.288L483.74 618.405L458.013 633.04Z" fill="#935B9D"/>
<path d="M454.264 142.967C451.776 147.612 441.755 156.235 439.072 155.365C439.072 155.365 439.072 155.365 439.037 155.33C436.993 154.681 433.475 149.524 431.93 147.083L431.663 146.639L431.166 145.836L434.044 204.578L351.513 261.955L351.406 261.05L351.3 260.213L351.033 258.249C350.127 250.838 347.977 233.95 346.076 222.03C344.974 214.841 343.962 209.462 343.429 209.172C341.759 208.267 317.914 204.595 314.538 201.146C311.216 197.697 301.639 140.098 302.598 134.617C303.434 130.075 308.533 123.022 310.203 117.865C310.576 116.772 310.772 115.765 310.736 114.842C310.505 109.822 304.535 78.6237 304.997 71.7078C305.495 64.8431 321.965 29.7001 321.965 29.7001C344.264 27.0874 376.139 26.5751 395.914 34.3449C399.166 35.5744 402.08 37.0771 404.567 38.8189C408.192 41.3632 410.91 44.4199 412.474 48.0913C421.553 69.6415 427.754 112.332 427.754 112.332C427.754 112.332 428.589 110.556 429.833 108.08C432.782 102.411 438.113 93.1044 441.595 92.8995C446.624 92.5409 460.234 102.855 461.673 108.883C463.059 114.928 456.787 138.322 454.264 142.967Z" fill="url(#paint7_linear_63_241)"/>
<path d="M359.42 100.874C359.42 100.874 358.78 105.69 372.994 104.084C388.097 102.394 392.397 94.5559 392.397 94.5559C392.397 94.5559 380.35 100.84 359.42 100.874Z" fill="#EC7C82"/>
<path fill-rule="evenodd" clip-rule="evenodd" d="M306.241 66.7044C306.241 66.7044 313.508 68.2925 316.386 71.7248C319.247 75.1743 321.219 80.6728 320.988 81.4754C320.757 82.278 311.82 77.3429 308.568 77.582C305.317 77.8211 305.655 80.6899 305.655 80.6899C305.655 80.6899 300.591 71.4346 306.241 66.7044Z" fill="url(#paint8_linear_63_241)"/>
<path fill-rule="evenodd" clip-rule="evenodd" d="M353.93 54.751C352.739 55.5195 354.765 63.4087 359.189 66.7044C359.189 66.7044 370.773 66.0384 376.85 66.7044C382.944 67.3704 391.899 71.5029 392.361 71.1613C392.841 70.8198 387.226 60.8302 378.875 56.2367C372.159 52.5482 356.435 53.1288 353.93 54.751Z" fill="url(#paint9_linear_63_241)"/>
<path d="M392.414 94.5729C392.61 95.4097 389.358 97.9199 385.414 99.7641C383.708 100.601 381.896 101.284 380.155 101.694C380.048 101.728 379.924 101.728 379.817 101.762C378.449 102.052 376.601 102.274 374.593 102.377C372.515 102.479 370.24 102.479 368.126 102.411C363.595 102.274 359.704 101.728 359.402 100.857C358.229 96.9636 358.691 83.0977 369.085 81.7145C382.162 79.9727 392.148 93.3093 392.414 94.5729Z" fill="#FFEBED"/>
<path d="M327.953 107.175C327.989 107.5 327.953 107.858 327.847 108.2C327.687 108.968 327.314 109.72 326.745 110.454C325.27 112.486 322.587 114.381 320.171 115.799C319.265 116.311 318.359 116.738 317.595 117.062C316.422 117.575 315.516 117.865 315.054 117.865C312.566 117.865 310.097 99.4397 313.348 95.3755C315.267 92.9849 319.922 95.8878 323.476 99.6617C325.022 101.335 326.39 103.145 327.136 104.785C327.616 105.655 327.882 106.492 327.953 107.175Z" fill="#FFEBED"/>
<path d="M312.549 111.7C312.549 111.7 313.33 118.924 314.983 119.47C316.635 120.034 326.23 112.776 327.065 109.976C327.065 109.976 321.877 116.499 315.96 117.404C313.241 117.831 312.549 111.7 312.549 111.7Z" fill="#EC7C82"/>
<path d="M386.285 95.8537C386.285 97.2369 385.982 98.5859 385.414 99.7812C383.708 100.618 381.896 101.301 380.155 101.711C380.048 101.745 379.924 101.745 379.817 101.779C378.449 102.069 376.601 102.291 374.593 102.394C372.515 102.496 370.24 102.496 368.126 102.428C366.509 100.686 365.514 98.398 365.514 95.8537C365.514 90.3722 370.169 85.8982 375.908 85.8982C381.629 85.8982 386.285 90.3551 386.285 95.8537Z" fill="#704061"/>
<path d="M383.637 95.8537C383.637 98.3639 382.234 100.533 380.155 101.711C380.048 101.745 379.924 101.745 379.817 101.779C378.449 102.069 376.601 102.291 374.593 102.394C371.644 101.625 369.458 98.9786 369.458 95.8537C369.458 92.114 372.639 89.0573 376.53 89.0573C380.457 89.0573 383.637 92.0969 383.637 95.8537Z" fill="#4A2039"/>
<path d="M327.829 108.2C327.669 108.968 327.296 109.72 326.727 110.454C325.252 112.486 322.569 114.381 320.153 115.799C319.247 116.311 318.341 116.738 317.577 117.062C316.635 115.201 316.066 112.776 316.066 110.044C316.066 104.119 318.749 99.3201 322.001 99.3201C322.534 99.3201 323.014 99.4226 323.476 99.6446C325.021 101.318 326.389 103.128 327.136 104.767C327.527 105.843 327.758 106.97 327.829 108.2Z" fill="#704061"/>
<path d="M326.745 110.044V110.437C325.27 112.469 322.588 114.364 320.171 115.782C319.265 114.433 318.661 112.366 318.661 110.044C318.661 106.048 320.438 102.735 322.676 102.735C324.933 102.752 326.745 106.048 326.745 110.044Z" fill="#4A2039"/>
<path d="M367.398 91.909C368.398 91.909 369.21 91.1292 369.21 90.1673C369.21 89.2053 368.398 88.4255 367.398 88.4255C366.397 88.4255 365.585 89.2053 365.585 90.1673C365.585 91.1292 366.397 91.909 367.398 91.909Z" fill="white"/>
<path d="M359.473 92.0286C359.473 92.0286 360.255 81.9365 369.21 80.3313C378.165 78.7261 388.097 89.0573 388.097 89.0573C388.097 89.0573 367.398 80.8094 359.473 92.0286Z" fill="#EC7C82"/>
<path d="M359.473 92.0286C359.473 92.0286 361.161 87.0081 369.21 85.8982C377.276 84.7882 387.813 86.2568 390.691 92.0286C390.691 92.0286 382.127 86.0519 371.733 86.7349C361.357 87.418 359.473 92.0286 359.473 92.0286Z" fill="#702039"/>
<path d="M327.154 104.785C327.154 104.785 320.953 92.8141 315.551 93.8045C311.82 94.4876 311.909 100.755 311.909 100.755C311.909 100.755 319.371 96.3147 327.154 104.785Z" fill="#EC7C82"/>
<path d="M326.709 103.948C326.709 103.948 320.26 97.3905 314.325 97.715C308.409 98.0565 312.282 109.993 312.282 109.993C312.282 109.993 311.216 101.694 315.125 100.225C319.691 98.4834 326.709 103.948 326.709 103.948Z" fill="#702039"/>
<path d="M314.059 124.217C314.059 124.217 320.775 121.383 329.73 121.468C338.685 121.553 345.934 121.639 349.701 120.7C349.701 120.7 347.906 124.149 345.579 125.601C345.579 125.601 337.708 126.027 339.218 129.135C339.218 129.135 336.535 132.585 330.085 133.268C323.636 133.934 315.125 128.948 314.059 124.217Z" fill="#CB5F7D"/>
<path d="M339.218 129.118C339.218 129.118 341.279 125.754 345.579 125.583C345.579 125.601 336.801 123.176 339.218 129.118Z" fill="#9F4A8B"/>
<path d="M314.059 124.217C314.059 124.217 320.508 114.159 329.463 109.993C338.418 105.809 342.185 121.451 342.185 121.451C342.185 121.451 334.101 121.28 327.154 121.519C320.206 121.758 314.059 124.217 314.059 124.217Z" fill="#FFBCAF"/>
<path d="M321.965 149.866C321.965 149.866 322.41 152.171 324.559 152.171C326.709 152.171 347.906 149.046 355.777 144.982C363.648 140.918 367.397 133.319 367.397 133.319H368.321C368.321 133.319 360.717 143.923 355.422 147.031C350.145 150.122 330.085 154.955 325.874 154.34C321.663 153.725 321.965 149.866 321.965 149.866Z" fill="#CB5F7D"/>
<path opacity="0.6" d="M364.021 129.118C364.021 129.118 372.532 130.057 375.091 135.915C375.091 135.915 367.237 135.676 364.768 137.895C364.768 137.913 366.349 134.207 364.021 129.118Z" fill="url(#paint10_linear_63_241)"/>
<path opacity="0.6" d="M431.148 145.836L434.026 204.578L351.495 261.955C351.495 261.955 345.099 210.111 343.411 209.155C341.741 208.25 317.897 204.578 314.521 201.129C344.388 204.22 382.162 191.105 382.162 191.105C382.162 191.105 384.952 176.351 390.709 159.138C396.412 141.96 413.611 106.168 413.611 106.168C410.395 97.7662 400.907 95.7 400.907 95.7C376.548 103.845 360.006 112.708 353.592 104.785C347.125 96.8612 349.683 62.35 349.683 62.35C328.93 58.2517 318.643 71.1784 318.643 71.1784C318.643 71.1784 329.001 101.66 327.935 107.192C326.869 112.708 316.564 120.819 314.023 120.717C311.536 120.614 310.168 117.882 310.168 117.882C310.541 116.789 310.736 115.782 310.701 114.86C310.47 109.839 304.5 78.6408 304.962 71.7249C305.459 64.8602 321.93 29.7172 321.93 29.7172C344.228 27.1045 376.104 26.5922 395.879 34.362L404.532 38.8359L420.487 47.1521L433.422 85.5225C433.422 85.5225 431.113 96.383 429.798 108.08C429.034 114.723 428.625 121.673 429.158 127.018C430.562 141.191 438.539 154.494 439.019 155.33C436.336 154.459 431.148 145.836 431.148 145.836Z" fill="url(#paint11_linear_63_241)"/>
<path opacity="0.82" d="M434.044 120.683C434.044 120.683 441.915 102.53 445.504 101.147C449.093 99.7641 457.426 106.287 459.47 110.915C461.513 115.543 454.992 136.768 454.992 136.768C454.992 136.768 458.581 118.872 457.853 115.765C457.124 112.657 448.631 109.651 446.126 110.608C446.126 110.608 450.604 115.491 450.781 118.855C450.959 122.219 445.504 131.167 444.953 131.253C444.42 131.338 440.476 129.101 440.476 129.101C440.476 129.101 440.387 125.396 439.677 123.773C438.966 122.151 434.044 120.683 434.044 120.683Z" fill="url(#paint12_linear_63_241)"/>
<path opacity="0.6" d="M434.026 204.595L351.495 261.972L351.389 261.067L351.282 260.23L351.016 258.266L346.058 222.047C344.957 214.858 343.944 209.479 343.411 209.189C341.741 208.284 317.897 204.613 314.521 201.163C350.429 203.229 382.162 191.139 382.162 191.139C382.162 191.139 414.713 183.626 418.266 178.793C421.856 173.995 431.166 145.87 431.166 145.87L434.026 204.595Z" fill="url(#paint13_linear_63_241)"/>
<path opacity="0.5" d="M343.411 209.172C343.411 209.172 408.245 187.895 413.078 184.975C417.911 182.055 418.267 178.759 418.267 178.759C418.267 178.759 370.702 202.341 314.539 201.146C314.521 201.146 319.229 205.313 343.411 209.172Z" fill="#BB61C0"/>
<path fill-rule="evenodd" clip-rule="evenodd" d="M437.882 95.4097C436.407 102.923 427.719 112.349 427.719 112.349C424.627 94.4363 411.017 66.4654 411.017 66.4654C411.017 66.4654 409.809 55.4512 406.931 49.2354C404.088 43.0538 371.129 30.6735 361.108 29.5123C351.051 28.3511 329.588 35.95 329.588 35.95L322.676 32.7226L309.706 57.5345L298.548 23.0916L283.498 21.9646C299.489 11.6163 328.38 10.4893 328.38 10.4893L322.889 3.1465C323.565 3.11235 324.204 3.11235 324.897 3.11235C347.462 2.7879 354.871 8.20108 354.871 8.20108C367.309 4.97366 382.162 3.07819 382.162 3.07819C382.162 3.07819 403.377 28.8463 414.109 34.362C424.84 39.8434 439.179 47.4424 442.04 55.0072C444.918 62.5207 437.882 95.4097 437.882 95.4097Z" fill="url(#paint14_linear_63_241)"/>
<path opacity="0.6" d="M321.966 149.866C321.966 149.866 322.427 150.447 323.138 150.549C323.849 150.669 323.138 148.824 339.2 146.297C355.262 143.77 356.239 143.377 358.656 142.335C361.072 141.294 367.184 134.019 367.184 134.019C367.184 134.019 362.298 142.267 355.12 145.836C347.96 149.405 328.131 153.298 324.968 153.008C321.823 152.735 321.966 149.866 321.966 149.866Z" fill="url(#paint15_linear_63_241)"/>
<path opacity="0.5" d="M437.882 95.4097C436.407 102.923 427.719 112.349 427.719 112.349C424.627 94.4363 411.017 66.4654 411.017 66.4654C411.017 66.4654 409.809 55.4512 406.931 49.2354C404.088 43.0538 371.129 30.6735 361.108 29.5123C351.051 28.3511 329.588 35.9501 329.588 35.9501L322.676 32.7226L309.706 57.5345L298.548 23.0916L283.498 21.9646C318.359 12.5555 349.701 16.6539 349.701 16.6539L328.38 10.4722L322.889 3.12944C323.565 3.09528 324.204 3.09528 324.897 3.09528C361.463 3.19774 396.572 36.4453 405.047 41.4315C413.629 46.4861 442.057 54.9901 442.057 54.9901C444.918 62.5208 437.882 95.4097 437.882 95.4097Z" fill="#7A4AC0"/>
<path opacity="0.5" d="M477.717 630.82L428.216 704.606L439.534 667.346L359.384 657.527L319.389 674.347L265.66 649.279L255.692 655.17L264.043 624.536L472.227 590.554L491.789 603.276L477.717 630.82Z" fill="#935B9D"/>
<path opacity="0.2" d="M382.162 3.04403C382.162 3.04403 379.746 16.4831 387.351 25.2432C394.973 34.0033 421.305 38.1016 421.305 38.1016C421.305 38.1016 415.157 35.5743 407.517 30.4173C399.895 25.2603 382.162 3.04403 382.162 3.04403Z" fill="#D6A49E"/>
<path fill-rule="evenodd" clip-rule="evenodd" d="M395.879 34.362C395.879 34.362 358.994 5.11028 349.506 1.31934C340.018 -2.4716 322.872 3.11235 322.872 3.11235C322.872 3.11235 347.533 -0.405365 395.879 34.362Z" fill="url(#paint16_linear_63_241)"/>
<path opacity="0.33" d="M411 66.4483C411 66.4483 426.919 83.0123 439.019 86.086L441.293 76.2672C441.293 76.2672 427.737 76.0964 411 66.4483Z" fill="url(#paint17_linear_63_241)"/>
<path opacity="0.33" d="M442.075 70.3417C442.075 70.3417 431.504 74.2522 409.987 59.8568L408.921 55.0926C408.921 55.0926 425.676 64.5357 442.697 62.3158C442.715 62.3329 442.946 68.1901 442.075 70.3417Z" fill="url(#paint18_linear_63_241)"/>
<path fill-rule="evenodd" clip-rule="evenodd" d="M261.484 624.553L273.406 623.716L307.805 561.712L269.426 374.795L220.281 569.584L261.484 624.553Z" fill="url(#paint19_radial_63_241)"/>
<path fill-rule="evenodd" clip-rule="evenodd" d="M514.443 582.135L514.408 582.169C512.791 585.909 491.807 603.275 491.807 603.275C491.807 603.275 477.984 600.082 461.62 602.541C445.256 605 367.7 626.653 367.7 626.653C367.7 626.653 342.789 640.587 334.51 643.405C333.337 643.832 332.484 643.985 332.111 643.866C329.037 642.892 308.569 627.387 308.569 627.387L268.378 623.186V619.993C268.378 619.993 262.426 609.901 261.609 605.393C261.484 604.966 261.449 604.573 261.484 604.266C261.733 600.56 279.643 583.86 279.643 583.86L279.607 583.552L279.572 583.194C278.399 575.407 267.454 501.928 264.096 451.621L264.061 450.955C263.616 444.022 263.297 437.567 263.172 431.761V431.608C263.048 424.128 263.208 417.827 263.83 413.182C268.414 377.271 316.777 270.271 316.777 270.271L321.113 246.159L346.236 222.679L348.386 237.758C348.386 237.758 339.307 247.918 338.792 251.111C338.312 254.304 347.498 301.264 347.498 301.264L358.229 256.524C358.229 256.524 418.107 213.97 425.48 205.586C432.854 197.253 437.065 188.373 437.065 188.373L439.286 186.238L459.31 202.632L485.073 209.906L480.045 390.556L508.367 514.308L494.881 559.987C494.881 559.987 515.989 578.429 514.443 582.135Z" fill="url(#paint20_linear_63_241)"/>
<path fill-rule="evenodd" clip-rule="evenodd" d="M321.113 246.176L311.394 292.658C311.394 292.658 320.864 261.169 327.26 251.828L347.48 301.264C347.48 301.264 336.873 254.8 338.774 251.094C340.675 247.389 348.351 237.775 348.351 237.775L346.201 222.679C346.201 222.662 324.702 239.277 321.113 246.176Z" fill="url(#paint21_linear_63_241)"/>
<path fill-rule="evenodd" clip-rule="evenodd" d="M347.462 301.264C347.462 301.264 334.989 255.824 335.362 252.324C335.753 248.823 347.693 233.147 347.693 233.147L351.513 262.16L358.211 256.507L347.462 301.264Z" fill="url(#paint22_linear_63_241)"/>
<path opacity="0.5" fill-rule="evenodd" clip-rule="evenodd" d="M514.443 582.135C512.897 585.789 491.789 603.276 491.789 603.276C491.789 603.276 477.966 600.082 461.602 602.541C445.238 605 367.682 626.653 367.682 626.653C367.682 626.653 335.184 644.839 332.111 643.866C329.037 642.893 308.568 627.387 308.568 627.387L268.378 623.186V619.993C268.378 619.993 262.426 609.901 261.608 605.393L291.423 616.68L289.362 606.486C289.362 606.486 326.603 640.519 331.347 640.553C336.091 640.553 402.418 602.268 404.479 601.107L394.315 613.795L480.045 568.576V544.465L451.119 545.95C419.35 575.817 335.362 611.489 330.138 613.675C372.23 588.863 461.246 513.01 461.246 513.01V491.358C451.972 473.632 421.411 442.69 421.411 442.69C407.357 462.038 353.254 504.762 351.566 506.077C353.272 503.618 425.018 401.673 425.462 388.08C425.906 374.3 415.779 337.534 415.779 337.534C403.253 347.575 387.262 356.301 375.304 362.175C373.971 362.841 372.71 363.422 371.502 364.003C370.578 364.43 369.672 364.822 368.819 365.249C368.001 365.676 367.202 366.035 366.473 366.342C365.94 366.53 365.496 366.769 365.016 367.008C364.093 367.435 363.186 367.828 362.458 368.135C359.828 369.262 358.283 369.928 358.283 369.928C358.283 369.928 358.425 369.791 358.727 369.621C400.428 345.082 407.304 303.928 408.068 301.35C408.103 301.316 408.103 301.264 408.103 301.23C408.103 301.23 407.41 301.469 406.202 301.896L389.305 307.617C389.305 307.617 387.084 308.471 383.637 309.751C383.477 309.837 383.317 309.871 383.104 309.939C372.443 313.918 351.46 321.5 347.16 321.312C347 321.312 346.876 321.312 346.751 321.278C342.86 320.219 333.745 314.003 332.608 313.218C332.519 313.184 332.484 313.132 332.484 313.132C332.484 313.132 332.768 314.413 333.248 316.291C333.337 316.599 333.408 316.957 333.532 317.299C333.816 318.306 334.101 319.485 334.421 320.646C334.509 320.919 334.58 321.192 334.669 321.466C334.829 322.012 335.042 322.558 335.149 323.105C336.286 326.879 337.619 330.431 338.596 331.25C340.906 333.077 382.145 336.39 382.145 336.39C382.145 336.39 339.36 353.757 335.309 353.364C331.293 353.005 307.751 324.232 307.751 324.232C292.631 341.906 291.387 385.092 291.387 385.092C292.4 434.476 331.826 550.595 333.035 554.215C297.464 513.642 278.061 450.511 278.061 450.511C278.061 450.511 273.975 489.838 279.358 509.032C284.742 528.225 326.194 578.156 329.517 578.617C332.839 579.13 361.765 578.617 361.765 578.617C361.765 578.617 315.178 596.565 304.642 594.123C294.106 591.664 279.607 583.809 279.607 583.809L279.572 583.501L279.536 583.143C278.363 575.356 267.418 501.877 264.06 451.57L264.025 450.904L263.137 431.71V431.556C268.68 392.691 295.349 327.237 307.254 299.386V299.352C310.736 291.138 312.975 286.22 312.975 286.22L327.242 251.794L326.923 245.647L343.5 225.907L346.218 222.628L346.414 224.062L348.35 237.689C348.35 237.689 351.993 258.71 351.478 261.903C352.242 261.562 357.874 255.551 358.211 256.456C358.211 256.456 418.089 213.902 425.462 205.518C432.836 197.184 437.047 188.305 437.047 188.305L439.268 186.17L459.292 202.563L483.03 209.257L485.055 209.838L480.027 390.488L508.349 514.24L494.863 559.919C494.881 559.987 515.989 578.43 514.443 582.135Z" fill="url(#paint23_linear_63_241)"/>
<path fill-rule="evenodd" clip-rule="evenodd" d="M580.61 690.074L588.268 710.241C588.268 710.241 566.271 725.969 545.519 716.389C545.519 716.389 506.625 567.637 502.041 559.492C497.421 551.312 435.146 378.654 432.676 359.033C425.462 301.486 449.644 207.481 456.414 197.936L461.602 195.75L461.726 195.835C462.934 196.621 472.902 202.768 477.966 204.835C483.349 207.054 551.346 211.255 563.375 216.634C563.411 216.72 563.464 216.822 563.535 216.993L566.254 222.679C566.254 222.679 566.094 222.679 565.721 222.765C563.571 223.038 554.705 225.07 534.769 238.577C511.476 254.305 506.892 276.196 506.128 279.885C505.719 281.831 513.874 322.832 521.568 360.724C523.913 372.285 526.223 383.538 528.248 393.357C530.274 403.21 532.015 411.628 533.152 417.229C534.165 422.13 534.769 424.982 534.769 424.982C534.769 424.982 534.485 426.143 534.005 428.175L533.561 430.037C529.421 447.369 516.024 503.635 516.344 506.129C516.504 507.221 525.423 527.85 536.919 554.915C542.64 568.269 548.948 583.228 555.184 598.136C563.127 617.107 570.855 636.028 576.95 651.636C577.145 652.182 577.358 652.694 577.554 653.224C582.991 667.363 586.953 678.582 588.25 684.371L583.915 687.598L580.61 690.074Z" fill="url(#paint24_linear_63_241)"/>
<path opacity="0.5" fill-rule="evenodd" clip-rule="evenodd" d="M474.91 209.172C454.122 252.443 425.551 327.664 415.779 337.551C407.641 345.799 389.127 355.584 375.304 362.192C373.972 362.858 372.71 363.439 371.502 364.02C370.578 364.447 369.672 364.839 368.819 365.266C368.002 365.625 367.202 366 366.474 366.359C365.941 366.547 365.496 366.786 365.017 367.025C364.093 367.418 363.24 367.811 362.458 368.152C359.828 369.279 358.283 369.945 358.283 369.945C358.283 369.945 358.443 369.826 358.727 369.638C363.151 366.718 398.722 342.025 408.068 301.367C408.103 301.333 408.103 301.281 408.103 301.247C408.103 301.247 407.41 301.486 406.202 301.913C402.435 303.245 393.48 306.387 383.637 309.785C383.477 309.871 383.317 309.905 383.104 309.973C367.7 315.267 350.287 321.073 347.16 321.346C346.965 321.346 346.84 321.346 346.751 321.312C344.602 320.458 333.941 314.071 332.608 313.252C332.519 313.218 332.484 313.166 332.484 313.166C332.484 313.166 332.768 314.447 333.248 316.326C333.337 316.633 333.408 316.992 333.532 317.333C333.817 318.341 334.101 319.519 334.421 320.68C334.509 320.953 334.58 321.226 334.669 321.5C334.829 322.046 335.042 322.593 335.149 323.139C336.251 326.571 337.494 329.884 338.596 331.284C338.596 331.284 312.424 312.91 307.769 301.503C307.52 300.923 307.36 300.223 307.236 299.437V299.403C305.175 284.837 323.316 238.304 323.316 238.304L343.447 225.958L346.36 224.131L348.297 237.758C348.297 237.758 351.94 258.778 351.424 261.972C352.188 261.63 357.821 255.619 358.158 256.524C358.158 256.524 418.035 213.97 425.409 205.586C432.783 197.253 436.994 188.373 436.994 188.373L439.215 186.238L459.239 202.632L474.91 209.172Z" fill="url(#paint25_linear_63_241)"/>
<path fill-rule="evenodd" clip-rule="evenodd" d="M319.389 254.373L291.423 281.831C291.423 281.831 261.733 321.175 261.484 327.084C261.235 332.992 270.19 358.316 269.942 360.28C269.693 362.244 231.812 408.486 230.533 411.936C229.254 415.385 211.983 571.804 211.983 581.384C211.983 590.981 261.502 624.553 261.502 624.553V617.91C261.502 617.91 228.241 571.053 227.21 564.41C226.18 557.767 270.706 405.771 276.089 387.329C281.455 368.886 316.244 277.716 316.244 277.716L319.389 254.373Z" fill="url(#paint26_linear_63_241)"/>
<path d="M527.627 578.686L521.639 580.923L522.119 586.182C522.119 586.182 542.836 638.248 567.018 648.545L588.268 655.17C588.268 655.17 592.123 627.131 575.351 600.082C558.596 573.033 527.627 578.686 527.627 578.686Z" fill="#22104B"/>
<path fill-rule="evenodd" clip-rule="evenodd" d="M655.607 483.81C655.607 483.895 655.572 483.964 655.519 484.049C655.43 484.288 655.394 484.561 655.323 484.783C655.163 485.398 655.003 486.064 654.843 486.73C654.755 487.123 654.648 487.515 654.559 487.942C654.524 487.976 654.524 488.028 654.524 488.062C654.115 489.701 653.671 491.375 653.227 493.082C653.191 493.202 653.138 493.321 653.102 493.475C650.544 502.969 647.346 513.249 643.419 523.854C626.93 568.474 599.781 616.8 599.781 616.8C597.845 642.107 591.715 657.612 591.271 658.773L591.235 658.859L577.572 653.258L568.866 649.706L563.393 647.452L568.617 649.091L576.968 651.67L588.268 655.222C588.268 655.222 581.623 622.742 572.028 611.677C568.67 607.749 562.185 602.832 555.22 598.17C552.182 596.103 549.055 594.088 546.07 592.21C536.351 586.097 527.911 581.418 527.911 581.418L526.614 582.511L522.154 586.216L520.982 573.682L521.461 573.443L533.081 567.757L533.117 567.637C533.241 567.21 533.721 565.605 534.449 563.078C535.089 560.943 535.942 558.177 536.919 554.933C543.316 533.434 555.522 492.041 555.522 489.155C555.522 485.227 549.357 475.647 549.357 474.401C549.357 474.401 549.357 474.401 549.392 474.367C549.517 473.086 560.088 465.214 560.088 465.214C556.801 459.408 545.217 443.373 533.988 428.175L524.269 415.044C516.078 404.098 509.806 395.85 509.806 395.85C509.806 395.85 492.429 328.877 492.376 307.19C492.251 281.831 499.838 268.956 516.326 247.525C532.335 226.812 561.456 217.266 563.287 216.685C563.322 216.651 563.375 216.651 563.375 216.651C563.411 216.737 563.464 216.839 563.535 217.01C563.944 217.983 564.708 219.964 565.721 222.782C573.13 243.461 594.131 307.053 595.784 315.079C595.944 315.813 596.512 317.214 597.401 319.16C607.777 341.24 662.626 433.793 662.963 437.192C663.265 439.651 661.773 458.195 655.607 483.81Z" fill="url(#paint27_linear_63_241)"/>
<path opacity="0.5" d="M568.866 649.706L583.933 687.632L580.61 690.091C573.236 667.346 548.148 620.693 526.596 582.494C524.89 579.42 534.787 570.694 533.081 567.74C517.002 539.427 492.393 523.461 492.393 523.461C492.393 523.461 477.166 431.061 474.963 408.384C472.813 385.689 486.388 310.844 483.829 305.926C481.271 301.025 459.026 290.199 457.977 284.393C457 278.826 475.407 259.154 476.527 257.959L442.608 281.832C447.477 253.792 461.566 195.767 461.566 195.767L461.691 195.852L477.93 204.852L487.916 222.679L504.795 235.743C528.977 224.301 561.243 217.129 563.269 216.703C563.304 216.668 563.358 216.668 563.358 216.668C563.393 216.754 563.446 216.856 563.518 217.027L566.236 222.713C566.236 222.713 566.076 222.713 565.703 222.799C573.112 243.478 594.113 307.07 595.766 315.096C595.926 315.83 596.494 317.231 597.383 319.177C596.121 318.358 575.706 305.004 567.764 305.004C559.573 305.004 539.122 320.236 527.645 342.384C524.482 348.497 522.581 354.85 521.532 360.758C518.778 376.298 521.621 389.224 521.621 389.224L528.231 393.391L614.617 447.864C590.631 432.991 550.76 421.738 533.135 417.264C527.627 415.829 524.269 415.078 524.269 415.078L533.988 428.209L533.543 430.071L516.326 506.163L509.806 494.056L514.514 512.822L534.449 563.095L546.034 592.227L568.599 649.125L568.866 649.706Z" fill="url(#paint28_linear_63_241)"/>
<path fill-rule="evenodd" clip-rule="evenodd" d="M358.212 256.507C358.212 256.507 381.505 275.94 391.739 301.52C391.739 301.52 437.545 236.596 443.426 228.229C449.307 219.862 466.079 204.578 466.079 204.578L439.268 186.238L437.029 188.407L358.212 256.507Z" fill="url(#paint29_linear_63_241)"/>
<path opacity="0.5" d="M479.601 254.373L466.097 292.538C466.097 292.538 450.799 287.057 453.678 281.814C456.556 276.589 479.601 254.373 479.601 254.373Z" fill="#935B9D"/>
<path opacity="0.5" fill-rule="evenodd" clip-rule="evenodd" d="M509.823 494.021L514.532 512.788L530.772 566.237L492.411 523.461C492.411 523.461 475.834 423.155 474.981 408.384C474.981 408.384 491.416 468.134 497.937 473.291L509.806 442.912L522.51 424.589L509.823 395.833L534.005 428.158L516.344 506.111L509.823 494.021Z" fill="#935B9D"/>
<path opacity="0.6" fill-rule="evenodd" clip-rule="evenodd" d="M390.709 159.138C390.709 159.138 405.456 135.232 411.017 127.001C416.579 118.77 421.322 108.2 421.322 108.2L413.629 106.168C413.611 106.168 396.412 139.569 390.709 159.138Z" fill="url(#paint30_linear_63_241)"/>
<path opacity="0.5" fill-rule="evenodd" clip-rule="evenodd" d="M514.408 582.169C512.791 585.909 491.807 603.276 491.807 603.276C491.807 603.276 477.984 600.082 461.62 602.541C445.256 605 367.7 626.653 367.7 626.653C367.7 626.653 342.789 640.587 334.51 643.405L332.111 643.866C332.111 643.866 382.02 612.326 404.479 601.107L394.351 613.76C396.697 612.514 471.978 572.88 482.603 571.428C490.865 570.301 507.265 578.361 514.408 582.169Z" fill="url(#paint31_linear_63_241)"/>
<path opacity="0.5" fill-rule="evenodd" clip-rule="evenodd" d="M268.378 623.186V619.993C268.378 619.993 262.426 609.901 261.609 605.393C261.484 604.966 261.449 604.573 261.484 604.266L291.423 616.68L289.362 606.486L308.569 627.404L268.378 623.186Z" fill="url(#paint32_linear_63_241)"/>
<path opacity="0.5" fill-rule="evenodd" clip-rule="evenodd" d="M434.986 368.904L425.462 388.097C425.462 388.097 380.403 470.934 351.566 506.094C351.566 506.094 421.571 454.387 444.403 406.847L434.986 368.904Z" fill="url(#paint33_linear_63_241)"/>
<path opacity="0.5" fill-rule="evenodd" clip-rule="evenodd" d="M291.423 392.008L278.097 450.545C278.097 450.545 272.5 533.519 275.308 553.43C275.308 553.43 263.012 461.32 263.137 431.573C263.137 431.573 281.846 368.784 299.027 323.259C299.045 323.276 289.806 380.584 291.423 392.008Z" fill="url(#paint34_linear_63_241)"/>
<path fill-rule="evenodd" clip-rule="evenodd" d="M344.015 288.286V302.852L335.362 326.093L335.345 353.398C335.345 353.398 331.063 412.055 329.854 423.496C328.646 434.937 343.997 571.326 343.997 571.326L329.552 578.669L332.111 588.931C332.111 588.931 324.186 611.148 323.405 613.351C322.641 615.57 332.111 643.849 332.111 643.849C332.111 643.849 324.737 617.261 324.826 613.197C324.915 609.133 337.37 587.275 337.37 587.275L332.129 578.805C332.129 578.805 346.911 571.872 349.203 567.996C351.513 564.12 330.139 447.574 331.098 422.489C332.058 397.404 347.48 301.23 347.48 301.23L344.015 288.286Z" fill="url(#paint35_linear_63_241)"/>
<path opacity="0.5" fill-rule="evenodd" clip-rule="evenodd" d="M389.607 571.326L461.247 513.01L475.248 494.039L489.408 528.174L451.119 545.968L389.607 571.326Z" fill="url(#paint36_linear_63_241)"/>
<path fill-rule="evenodd" clip-rule="evenodd" d="M492.393 534.987C492.393 534.987 484.132 516.528 473.631 489.889C458.919 452.731 439.837 399.743 432.676 359.05C420.399 289.226 456.414 197.953 456.414 197.953L451.101 194.333L461.602 195.767L477.966 204.835C477.966 204.835 487.17 239.773 487.17 243.854C487.17 247.935 455.721 278.86 457.995 284.393C460.305 289.96 482.799 301.486 483.847 305.926C484.896 310.366 477.842 361.578 474.892 400.631C473.435 420.149 492.393 534.987 492.393 534.987Z" fill="url(#paint37_linear_63_241)"/>
<path opacity="0.76" fill-rule="evenodd" clip-rule="evenodd" d="M319.389 254.373C319.389 254.373 287.585 336.049 275.308 364.651C263.03 393.254 215.271 581.025 215.271 581.025L222.786 578.19L250.344 601.926C250.344 601.926 230.782 569.96 231.155 562.941C231.546 555.94 238.262 545.967 238.262 545.967C238.262 545.967 257.522 568.252 261.609 571.309C265.713 574.365 278.897 578.669 278.897 578.669C278.897 578.669 261.36 454.063 263.154 431.573C264.949 409.084 316.244 277.716 316.244 277.716L319.389 254.373Z" fill="url(#paint38_linear_63_241)"/>
<path opacity="0.5" fill-rule="evenodd" clip-rule="evenodd" d="M636.88 468.851C636.88 468.851 601.309 473.41 586.242 477.099C571.122 480.804 568.173 485.825 568.173 485.825L533.117 567.603C533.241 567.176 533.721 565.571 534.45 563.044C535.089 560.909 535.942 558.143 536.919 554.898C543.316 533.399 555.522 492.007 555.522 489.121C555.522 485.193 549.357 475.613 549.357 474.367C549.357 474.367 549.357 474.367 549.392 474.333C550.6 473.82 569.772 465.453 583.915 463.318C598.52 461.115 636.88 468.851 636.88 468.851Z" fill="url(#paint39_linear_63_241)"/>
<path opacity="0.5" fill-rule="evenodd" clip-rule="evenodd" d="M600.83 578.208C600.83 578.208 643.01 525.8 653.102 493.475C650.544 502.969 647.346 513.249 643.419 523.854C626.93 568.474 599.781 616.8 599.781 616.8C597.845 642.107 591.715 657.612 591.271 658.773L591.235 658.859C591.235 658.859 594.309 605 594.309 562.6L600.83 578.208Z" fill="url(#paint40_linear_63_241)"/>
<path opacity="0.5" fill-rule="evenodd" clip-rule="evenodd" d="M655.519 484.049C655.199 485.33 654.879 486.627 654.542 487.942C654.915 486.235 655.234 484.937 655.519 484.049Z" fill="url(#paint41_linear_63_241)"/>
<path opacity="0.78" fill-rule="evenodd" clip-rule="evenodd" d="M492.393 534.987C492.393 534.987 484.131 516.528 473.631 489.889C470.841 469.841 467.803 447.335 466.097 431.983C462.242 398.036 482.834 310.844 481.04 305.192C479.263 299.54 453.642 286.032 453.642 281.831C453.642 277.665 481.271 247.167 483.012 241.48C484.753 235.828 475.265 216.634 475.265 216.634C475.265 216.634 447.637 254.919 442.608 305.414C437.704 354.594 453.269 419.825 454.122 423.326C452.914 419.859 433.653 363.234 433.991 323.241C434.311 281.968 461.584 195.75 461.584 195.75L477.948 204.817C477.948 204.817 487.152 239.756 487.152 243.837C487.152 247.918 455.703 278.843 457.977 284.376C460.287 289.943 482.781 301.469 483.829 305.909C484.878 310.349 477.824 361.561 474.874 400.614C473.435 420.149 492.393 534.987 492.393 534.987Z" fill="url(#paint42_linear_63_241)"/>
<path opacity="0.5" fill-rule="evenodd" clip-rule="evenodd" d="M521.461 573.409C521.461 573.409 532.531 569.84 555.149 584.099C577.785 598.358 591.217 658.859 591.217 658.859L577.554 653.258L522.119 586.199L521.461 573.409Z" fill="#935B9D"/>
<path d="M575.333 616.476C575.333 616.476 569.416 626.448 567.266 638.948C563.375 661.813 531.695 702.386 531.695 702.386C531.695 702.386 519.169 698.954 512.009 686.881C507.194 678.821 494.472 657.015 486.601 643.541C486.512 643.422 486.441 643.354 486.406 643.268C483.047 637.394 480.578 633.176 480.134 632.408C480.098 632.374 480.045 632.322 480.045 632.288C480.045 632.288 485.926 606.981 490.048 602.934C491.096 601.875 493.175 600.868 495.716 599.929C502.93 597.248 513.946 595.096 516.628 593.935C520.2 592.381 527.609 578.669 527.609 578.669C552.448 579.915 575.333 616.476 575.333 616.476Z" fill="url(#paint43_linear_63_241)"/>
<path d="M521.461 573.409L533.135 567.603L538.927 548.256C538.927 548.256 566.805 562.702 575.369 584.099C583.933 605.495 585.017 616.68 585.017 616.68C585.017 616.68 566.378 573.477 521.461 573.409Z" fill="url(#paint44_linear_63_241)"/>
<path fill-rule="evenodd" clip-rule="evenodd" d="M521.461 588.744C521.461 588.744 557.103 602.319 570.909 626.038L575.369 616.493C575.369 616.493 556.997 582.682 527.645 578.686L521.461 588.744Z" fill="url(#paint45_linear_63_241)"/>
<path opacity="0.5" d="M575.333 616.476C575.333 616.476 569.416 626.448 567.267 638.948C563.375 661.813 531.696 702.386 531.696 702.386C531.696 702.386 519.169 698.954 512.009 686.881C507.194 678.821 494.472 657.015 486.601 643.541C498.843 662.001 521.444 688.794 521.444 688.794C549.925 685.02 567.995 630.068 567.995 630.068C567.995 630.068 567.675 621.223 548.379 610.328C535.089 602.849 510.054 600.629 495.698 599.929C502.912 597.248 513.928 595.096 516.611 593.935C520.182 592.381 527.591 578.669 527.591 578.669C552.448 579.915 575.333 616.476 575.333 616.476Z" fill="#BB61C0"/>
<path opacity="0.7" d="M567.8 304.953C567.8 304.953 590.276 383.435 662.981 437.157L597.418 319.126L567.8 304.953Z" fill="url(#paint46_linear_63_241)"/>
<path opacity="0.5" d="M240.483 843.983L248.461 725.986C239.914 759.916 235.401 803.085 233.074 843.983H240.483Z" fill="url(#paint47_linear_63_241)"/>
<path opacity="0.5" d="M509.806 208.694L485.073 233.13H481.999L434.044 278.075L408.086 301.367C408.086 301.367 358.372 319.468 346.787 321.312L332.644 313.252L313.473 309.717L307.805 301.503V292.555L281.1 295.885L267.33 298.788L319.389 254.39L323.351 238.304L346.414 224.131L343.411 209.189C343.411 209.189 319.976 205.808 314.521 201.163C314.521 201.163 364.43 204.339 418.249 178.776L431.148 145.853L433.067 191.208L439.268 186.221L451.101 194.333L461.602 195.767L477.966 204.835L509.806 208.694Z" fill="#7A4AC0"/>
<defs>
<radialGradient id="paint0_radial_63_241" cx="0" cy="0" r="1" gradientUnits="userSpaceOnUse" gradientTransform="translate(115.474 577.327) rotate(-9.35803) scale(41.9044 40.3617)">
<stop stop-color="#543C79"/>
<stop offset="0.9888" stop-color="#432160"/>
</radialGradient>
<linearGradient id="paint1_linear_63_241" x1="134.58" y1="578.52" x2="89.1455" y2="586.626" gradientUnits="userSpaceOnUse">
<stop stop-color="#BDB3E7"/>
<stop offset="0.6458" stop-color="#B2AEEB"/>
<stop offset="1" stop-color="#AAAAEE"/>
</linearGradient>
<linearGradient id="paint2_linear_63_241" x1="142.296" y1="651.656" x2="-9.40731" y2="631.866" gradientUnits="userSpaceOnUse">
<stop stop-color="#FF9595"/>
<stop offset="0.984" stop-color="#FFC2A9"/>
</linearGradient>
<linearGradient id="paint3_linear_63_241" x1="151.473" y1="569.61" x2="88.2062" y2="580.898" gradientUnits="userSpaceOnUse">
<stop stop-color="#DEDFFF"/>
<stop offset="1" stop-color="white"/>
</linearGradient>
<radialGradient id="paint4_radial_63_241" cx="0" cy="0" r="1" gradientUnits="userSpaceOnUse" gradientTransform="translate(206.289 422.955) rotate(-9.35804) scale(162.627 156.64)">
<stop stop-color="#543C79"/>
<stop offset="0.9888" stop-color="#432160"/>
</radialGradient>
<linearGradient id="paint5_linear_63_241" x1="74.7593" y1="550.617" x2="172.758" y2="533.133" gradientUnits="userSpaceOnUse">
<stop offset="0.0112" stop-color="#4B2B67"/>
<stop offset="1" stop-color="#594591"/>
</linearGradient>
<linearGradient id="paint6_linear_63_241" x1="388.499" y1="1320.37" x2="388.499" y2="584.084" gradientUnits="userSpaceOnUse">
<stop offset="0.0112" stop-color="#4B1567"/>
<stop offset="1" stop-color="#4F3885"/>
</linearGradient>
<linearGradient id="paint7_linear_63_241" x1="382.178" y1="261.963" x2="382.178" y2="27.9855" gradientUnits="userSpaceOnUse">
<stop offset="0.016" stop-color="#FFC2A9"/>
<stop offset="1" stop-color="#FF9595"/>
</linearGradient>
<linearGradient id="paint8_linear_63_241" x1="312.281" y1="81.5652" x2="312.281" y2="66.7002" gradientUnits="userSpaceOnUse">
<stop offset="0.00558659" stop-color="#651D4F"/>
<stop offset="1" stop-color="#93364F"/>
</linearGradient>
<linearGradient id="paint9_linear_63_241" x1="372.995" y1="71.1709" x2="372.995" y2="53.4865" gradientUnits="userSpaceOnUse">
<stop offset="0.00558659" stop-color="#651D4F"/>
<stop offset="1" stop-color="#93364F"/>
</linearGradient>
<linearGradient id="paint10_linear_63_241" x1="364.018" y1="133.514" x2="375.078" y2="133.514" gradientUnits="userSpaceOnUse">
<stop stop-color="#FFEADB"/>
<stop offset="0.9944" stop-color="#C27CB6"/>
</linearGradient>
<linearGradient id="paint11_linear_63_241" x1="371.98" y1="261.963" x2="371.98" y2="27.9855" gradientUnits="userSpaceOnUse">
<stop stop-color="#FFEADB"/>
<stop offset="0.9944" stop-color="#C27CB6"/>
</linearGradient>
<linearGradient id="paint12_linear_63_241" x1="446.948" y1="136.78" x2="446.948" y2="100.967" gradientUnits="userSpaceOnUse">
<stop stop-color="#FFEADB"/>
<stop offset="0.9944" stop-color="#C27CB6"/>
</linearGradient>
<linearGradient id="paint13_linear_63_241" x1="374.279" y1="261.963" x2="374.279" y2="145.841" gradientUnits="userSpaceOnUse">
<stop stop-color="#FFEADB"/>
<stop offset="0.9944" stop-color="#C27CB6"/>
</linearGradient>
<linearGradient id="paint14_linear_63_241" x1="363.113" y1="112.341" x2="363.113" y2="3.0495" gradientUnits="userSpaceOnUse">
<stop offset="0.00558659" stop-color="#651D4F"/>
<stop offset="1" stop-color="#93364F"/>
</linearGradient>
<linearGradient id="paint15_linear_63_241" x1="321.957" y1="143.528" x2="367.181" y2="143.528" gradientUnits="userSpaceOnUse">
<stop stop-color="#FFEADB"/>
<stop offset="0.9944" stop-color="#C27CB6"/>
</linearGradient>
<linearGradient id="paint16_linear_63_241" x1="359.384" y1="34.3696" x2="359.384" y2="0.0145429" gradientUnits="userSpaceOnUse">
<stop offset="0.00558659" stop-color="#651D4F"/>
<stop offset="1" stop-color="#C46376"/>
</linearGradient>
<linearGradient id="paint17_linear_63_241" x1="411.006" y1="76.2714" x2="441.3" y2="76.2714" gradientUnits="userSpaceOnUse">
<stop/>
<stop offset="0.2749" stop-color="#4C3A39"/>
<stop offset="0.5289" stop-color="#8C6968"/>
<stop offset="0.7418" stop-color="#B98C8A"/>
<stop offset="0.9054" stop-color="#D6A19F"/>
<stop offset="1" stop-color="#E0A9A7"/>
</linearGradient>
<linearGradient id="paint18_linear_63_241" x1="408.922" y1="62.9675" x2="442.739" y2="62.9675" gradientUnits="userSpaceOnUse">
<stop/>
<stop offset="0.2749" stop-color="#4C3A39"/>
<stop offset="0.5289" stop-color="#8C6968"/>
<stop offset="0.7418" stop-color="#B98C8A"/>
<stop offset="0.9054" stop-color="#D6A19F"/>
<stop offset="1" stop-color="#E0A9A7"/>
</linearGradient>
<radialGradient id="paint19_radial_63_241" cx="0" cy="0" r="1" gradientUnits="userSpaceOnUse" gradientTransform="translate(264.048 499.675) scale(96.9467 93.1742)">
<stop stop-color="#857CA4"/>
<stop offset="0.9829" stop-color="#72549F"/>
</radialGradient>
<linearGradient id="paint20_linear_63_241" x1="388.001" y1="643.896" x2="388.001" y2="186.227" gradientUnits="userSpaceOnUse">
<stop offset="0.0171" stop-color="#D8CFE4"/>
<stop offset="1" stop-color="#D6E0F9"/>
</linearGradient>
<linearGradient id="paint21_linear_63_241" x1="311.389" y1="261.963" x2="348.348" y2="261.963" gradientUnits="userSpaceOnUse">
<stop offset="0.0171" stop-color="#E8E3FC"/>
<stop offset="1" stop-color="#F5F4F9"/>
</linearGradient>
<linearGradient id="paint22_linear_63_241" x1="335.37" y1="267.199" x2="358.219" y2="267.199" gradientUnits="userSpaceOnUse">
<stop offset="0.0171" stop-color="#8268AA"/>
<stop offset="1" stop-color="#978DBF"/>
</linearGradient>
<linearGradient id="paint23_linear_63_241" x1="489.627" y1="604.485" x2="293.881" y2="251.715" gradientUnits="userSpaceOnUse">
<stop stop-color="#C2C8FF"/>
<stop offset="1" stop-color="#755CBB"/>
</linearGradient>
<linearGradient id="paint24_linear_63_241" x1="509.808" y1="719.497" x2="509.808" y2="195.768" gradientUnits="userSpaceOnUse">
<stop offset="0.0112" stop-color="#4B1567"/>
<stop offset="1" stop-color="#4F3885"/>
</linearGradient>
<linearGradient id="paint25_linear_63_241" x1="391.011" y1="369.95" x2="391.011" y2="186.227" gradientUnits="userSpaceOnUse">
<stop stop-color="#C2C8FF"/>
<stop offset="1" stop-color="#755CBB"/>
</linearGradient>
<linearGradient id="paint26_linear_63_241" x1="211.972" y1="439.464" x2="319.397" y2="439.464" gradientUnits="userSpaceOnUse">
<stop offset="0.0112" stop-color="#4B2B67"/>
<stop offset="1" stop-color="#6B4F9F"/>
</linearGradient>
<linearGradient id="paint27_linear_63_241" x1="577.706" y1="658.851" x2="577.706" y2="216.64" gradientUnits="userSpaceOnUse">
<stop offset="0.0112" stop-color="#4B2B67"/>
<stop offset="1" stop-color="#594591"/>
</linearGradient>
<linearGradient id="paint28_linear_63_241" x1="528.644" y1="690.081" x2="528.644" y2="195.768" gradientUnits="userSpaceOnUse">
<stop stop-color="#CCD1FF"/>
<stop offset="1" stop-color="#754577"/>
</linearGradient>
<linearGradient id="paint29_linear_63_241" x1="358.219" y1="243.859" x2="466.088" y2="243.859" gradientUnits="userSpaceOnUse">
<stop offset="0.0171" stop-color="#E8E3FC"/>
<stop offset="1" stop-color="#F5F4F9"/>
</linearGradient>
<linearGradient id="paint30_linear_63_241" x1="390.705" y1="132.651" x2="421.313" y2="132.651" gradientUnits="userSpaceOnUse">
<stop stop-color="#FFEADB"/>
<stop offset="0.9944" stop-color="#C27CB6"/>
</linearGradient>
<linearGradient id="paint31_linear_63_241" x1="436.006" y1="634.238" x2="414.422" y2="595.338" gradientUnits="userSpaceOnUse">
<stop stop-color="#C2C8FF"/>
<stop offset="1" stop-color="#755CBB"/>
</linearGradient>
<linearGradient id="paint32_linear_63_241" x1="294.449" y1="635.224" x2="273.552" y2="597.564" gradientUnits="userSpaceOnUse">
<stop stop-color="#C2C8FF"/>
<stop offset="1" stop-color="#755CBB"/>
</linearGradient>
<linearGradient id="paint33_linear_63_241" x1="413.752" y1="471.578" x2="375.188" y2="402.078" gradientUnits="userSpaceOnUse">
<stop stop-color="#C2C8FF"/>
<stop offset="1" stop-color="#755CBB"/>
</linearGradient>
<linearGradient id="paint34_linear_63_241" x1="336.069" y1="519.737" x2="244.002" y2="353.815" gradientUnits="userSpaceOnUse">
<stop stop-color="#C2C8FF"/>
<stop offset="1" stop-color="#755CBB"/>
</linearGradient>
<linearGradient id="paint35_linear_63_241" x1="336.372" y1="643.858" x2="336.372" y2="288.289" gradientUnits="userSpaceOnUse">
<stop stop-color="#A7A7D6"/>
<stop offset="1" stop-color="#755CBB"/>
</linearGradient>
<linearGradient id="paint36_linear_63_241" x1="439.508" y1="571.322" x2="439.508" y2="494.031" gradientUnits="userSpaceOnUse">
<stop stop-color="#C2C8FF"/>
<stop offset="1" stop-color="#755CBB"/>
</linearGradient>
<linearGradient id="paint37_linear_63_241" x1="461.265" y1="534.98" x2="461.265" y2="194.327" gradientUnits="userSpaceOnUse">
<stop offset="0.0112" stop-color="#4B2B67"/>
<stop offset="1" stop-color="#6B4F9F"/>
</linearGradient>
<linearGradient id="paint38_linear_63_241" x1="267.336" y1="601.927" x2="267.336" y2="254.377" gradientUnits="userSpaceOnUse">
<stop stop-color="#CCCCFF"/>
<stop offset="1" stop-color="#755C9D"/>
</linearGradient>
<linearGradient id="paint39_linear_63_241" x1="585.004" y1="567.612" x2="585.004" y2="462.93" gradientUnits="userSpaceOnUse">
<stop stop-color="#CCEDFF"/>
<stop offset="1" stop-color="#755C77"/>
</linearGradient>
<linearGradient id="paint40_linear_63_241" x1="622.158" y1="658.851" x2="622.158" y2="493.47" gradientUnits="userSpaceOnUse">
<stop stop-color="#CCEDFF"/>
<stop offset="1" stop-color="#755C77"/>
</linearGradient>
<linearGradient id="paint41_linear_63_241" x1="655.038" y1="487.94" x2="655.038" y2="484.046" gradientUnits="userSpaceOnUse">
<stop stop-color="#CCEDFF"/>
<stop offset="1" stop-color="#755C77"/>
</linearGradient>
<linearGradient id="paint42_linear_63_241" x1="463.207" y1="534.98" x2="463.207" y2="195.768" gradientUnits="userSpaceOnUse">
<stop stop-color="#9C8ABB"/>
<stop offset="1" stop-color="white"/>
</linearGradient>
<linearGradient id="paint43_linear_63_241" x1="527.692" y1="702.386" x2="527.692" y2="578.672" gradientUnits="userSpaceOnUse">
<stop stop-color="#FF9595"/>
<stop offset="0.984" stop-color="#FFC2A9"/>
</linearGradient>
<linearGradient id="paint44_linear_63_241" x1="553.229" y1="616.682" x2="553.229" y2="548.264" gradientUnits="userSpaceOnUse">
<stop offset="0.0112" stop-color="#4B2B67"/>
<stop offset="1" stop-color="#594591"/>
</linearGradient>
<linearGradient id="paint45_linear_63_241" x1="548.405" y1="626.037" x2="548.405" y2="578.684" gradientUnits="userSpaceOnUse">
<stop offset="0.0171" stop-color="#D8CFE4"/>
<stop offset="1" stop-color="#D6E0F9"/>
</linearGradient>
<linearGradient id="paint46_linear_63_241" x1="567.805" y1="371.059" x2="662.98" y2="371.059" gradientUnits="userSpaceOnUse">
<stop/>
<stop offset="0.0845" stop-color="#081A1C"/>
<stop offset="0.3434" stop-color="#1F676B"/>
<stop offset="0.5735" stop-color="#32A3AB"/>
<stop offset="0.7663" stop-color="#3FCFD8"/>
<stop offset="0.9144" stop-color="#47EAF5"/>
<stop offset="1" stop-color="#4AF4FF"/>
</linearGradient>
<linearGradient id="paint47_linear_63_241" x1="230.812" y1="784.984" x2="248.446" y2="784.984" gradientUnits="userSpaceOnUse">
<stop stop-color="#FF5179"/>
<stop offset="0.0856" stop-color="#F54E74"/>
<stop offset="0.2337" stop-color="#D84567"/>
<stop offset="0.4265" stop-color="#AB3651"/>
<stop offset="0.6566" stop-color="#6B2233"/>
<stop offset="0.9155" stop-color="#1C090D"/>
<stop offset="1"/>
</linearGradient>
</defs>
</svg>
